<?xml version="1.0" encoding="utf-8"?>
<!-- Generator: Adobe Illustrator 27.9.0, SVG Export Plug-In . SVG Version: 6.00 Build 0)  -->
<svg version="1.1" id="Capa_1" xmlns="http://www.w3.org/2000/svg" xmlns:xlink="http://www.w3.org/1999/xlink" x="0px" y="0px"
	 viewBox="0 0 800 800" style="enable-background:new 0 0 800 800;" xml:space="preserve">
<style type="text/css">
	.st0{fill:#0023B4;}
	.st1{fill:#009F0D;}
	.st2{font-family:'EthnocentricRg-Regular';}
	.st3{font-size:110.3896px;}
</style>
<g>
	<polygon points="208.2,296.9 201.6,290.9 119.2,366.1 119.2,445.6 130,455.5 208.1,384.2 	"/>
	<polygon class="st0" points="131.6,450.8 131.6,367.1 206.3,298.8 206.3,382.5 	"/>
	<polygon points="200.7,411.8 194.2,405.9 126.9,467.4 126.9,508.1 136,516.5 200.9,457.2 	"/>
	<polygon class="st1" points="198.6,414.7 198.6,455.6 137.6,511.2 137.6,470.3 	"/>
	<polygon points="21,296.9 27.6,290.9 110,366.1 110,445.6 99.2,455.5 21.1,384.2 	"/>
	<polygon class="st0" points="97.6,450.8 97.6,367.1 22.8,298.8 22.8,382.5 	"/>
	<polygon points="28.5,411.8 35,405.9 102.3,467.4 102.3,508.1 93.2,516.5 28.3,457.2 	"/>
	<polygon class="st1" points="30.6,414.7 30.6,455.6 91.5,511.2 91.5,470.3 	"/>
</g>
<text transform="matrix(0.5729 0 0 1 234.3262 432.5599)" class="st2 st3">COMPUGUED</text>
</svg>
